<svg width="74" height="80" viewBox="0 0 74 80" fill="none" xmlns="http://www.w3.org/2000/svg">
<circle cx="22.1175" cy="24.9949" r="15.9949" fill="#EDE4F1"/>
<circle cx="53.2653" cy="32.8776" r="13.4694" fill="#EDE4F1"/>
<mask id="path-3-outside-1_44_291" maskUnits="userSpaceOnUse" x="49" y="13" width="25" height="26" fill="black">
<rect fill="white" x="49" y="13" width="25" height="26"/>
<path d="M70.9414 28.2812H64.0664V35.1562H59.5156V28.2812H52.6211V23.7109H59.5156V16.8359H64.0664V23.7109H70.9414V28.2812Z"/>
</mask>
<path d="M70.9414 28.2812H64.0664V35.1562H59.5156V28.2812H52.6211V23.7109H59.5156V16.8359H64.0664V23.7109H70.9414V28.2812Z" fill="#EDE4F1"/>
<path d="M70.9414 28.2812V31.2812L73.9414 28.2812H70.9414ZM64.0664 28.2812V25.2812L61.0664 28.2812H64.0664ZM64.0664 35.1562V38.1562L67.0664 35.1562H64.0664ZM59.5156 35.1562H56.5156L59.5156 38.1562V35.1562ZM59.5156 28.2812H62.5156L59.5156 25.2812V28.2812ZM52.6211 28.2812H49.6211L52.6211 31.2812V28.2812ZM52.6211 23.7109V20.7109L49.6211 23.7109H52.6211ZM59.5156 23.7109V26.7109L62.5156 23.7109H59.5156ZM59.5156 16.8359V13.8359L56.5156 16.8359H59.5156ZM64.0664 16.8359H67.0664L64.0664 13.8359V16.8359ZM64.0664 23.7109H61.0664L64.0664 26.7109V23.7109ZM70.9414 23.7109H73.9414L70.9414 20.7109V23.7109ZM70.9414 28.2812V25.2812H64.0664V28.2812V31.2812H70.9414V28.2812ZM64.0664 28.2812H61.0664V35.1562H64.0664H67.0664V28.2812H64.0664ZM64.0664 35.1562V32.1562H59.5156V35.1562V38.1562H64.0664V35.1562ZM59.5156 35.1562H62.5156V28.2812H59.5156H56.5156V35.1562H59.5156ZM59.5156 28.2812V25.2812H52.6211V28.2812V31.2812H59.5156V28.2812ZM52.6211 28.2812H55.6211V23.7109H52.6211H49.6211V28.2812H52.6211ZM52.6211 23.7109V26.7109H59.5156V23.7109V20.7109H52.6211V23.7109ZM59.5156 23.7109H62.5156V16.8359H59.5156H56.5156V23.7109H59.5156ZM59.5156 16.8359V19.8359H64.0664V16.8359V13.8359H59.5156V16.8359ZM64.0664 16.8359H61.0664V23.7109H64.0664H67.0664V16.8359H64.0664ZM64.0664 23.7109V26.7109H70.9414V23.7109V20.7109H64.0664V23.7109ZM70.9414 23.7109H67.9414V28.2812H70.9414H73.9414V23.7109H70.9414Z" fill="#202D46" mask="url(#path-3-outside-1_44_291)"/>
<path d="M0 65.0206C0 52.7632 9.93655 42.8267 22.1939 42.8267C34.4513 42.8267 44.3878 52.7632 44.3878 65.0206V79.5614H0V65.0206Z" fill="#EDE4F1"/>
<path d="M47.9082 54.9999C47.9082 51.8273 50.4801 49.2554 53.6527 49.2554C63.3292 49.2554 71.1735 57.0997 71.1735 66.7762V79.5615H47.9082V54.9999Z" fill="#EDE4F1"/>
</svg>
